<svg height="512" viewBox="0 0 512 512" width="512" xmlns="http://www.w3.org/2000/svg"><g id="Filled_Outline" data-name="Filled Outline"><path d="m24 128h464a0 0 0 0 1 0 0v344a16 16 0 0 1 -16 16h-432a16 16 0 0 1 -16-16v-344a0 0 0 0 1 0 0z" fill="#cfd8dc"/><path d="m40 56h432a16 16 0 0 1 16 16v64a0 0 0 0 1 0 0h-464a0 0 0 0 1 0 0v-64a16 16 0 0 1 16-16z" fill="#546e7a"/><rect fill="#253238" height="64" rx="16" width="32" x="72" y="24"/><rect fill="#253238" height="64" rx="16" width="32" x="296" y="24"/><rect fill="#253238" height="64" rx="16" width="32" x="184" y="24"/><rect fill="#253238" height="64" rx="16" width="32" x="408" y="24"/><g fill="#1a76d2"><path d="m400 400h32v32h-32z"/><path d="m320 400h32v32h-32z"/><path d="m240 400h32v32h-32z"/><path d="m160 400h32v32h-32z"/><path d="m80 400h32v32h-32z"/><path d="m400 328h32v32h-32z"/><path d="m320 328h32v32h-32z"/><path d="m240 328h32v32h-32z"/><path d="m160 328h32v32h-32z"/><path d="m80 328h32v32h-32z"/><path d="m400 256h32v32h-32z"/><path d="m320 256h32v32h-32z"/><path d="m240 256h32v32h-32z"/><path d="m160 256h32v32h-32z"/><path d="m80 256h32v32h-32z"/><path d="m400 184h32v32h-32z"/><path d="m320 184h32v32h-32z"/><path d="m240 184h32v32h-32z"/><path d="m160 184h32v32h-32z"/><path d="m80 184h32v32h-32z"/></g><path d="m160 224h32a8 8 0 0 0 8-8v-32a8 8 0 0 0 -8-8h-32a8 8 0 0 0 -8 8v32a8 8 0 0 0 8 8zm8-32h16v16h-16z"/><path d="m80 224h32a8 8 0 0 0 8-8v-32a8 8 0 0 0 -8-8h-32a8 8 0 0 0 -8 8v32a8 8 0 0 0 8 8zm8-32h16v16h-16z"/><path d="m240 224h32a8 8 0 0 0 8-8v-32a8 8 0 0 0 -8-8h-32a8 8 0 0 0 -8 8v32a8 8 0 0 0 8 8zm8-32h16v16h-16z"/><path d="m400 224h32a8 8 0 0 0 8-8v-32a8 8 0 0 0 -8-8h-32a8 8 0 0 0 -8 8v32a8 8 0 0 0 8 8zm8-32h16v16h-16z"/><path d="m320 224h32a8 8 0 0 0 8-8v-32a8 8 0 0 0 -8-8h-32a8 8 0 0 0 -8 8v32a8 8 0 0 0 8 8zm8-32h16v16h-16z"/><path d="m160 296h32a8 8 0 0 0 8-8v-32a8 8 0 0 0 -8-8h-32a8 8 0 0 0 -8 8v32a8 8 0 0 0 8 8zm8-32h16v16h-16z"/><path d="m80 296h32a8 8 0 0 0 8-8v-32a8 8 0 0 0 -8-8h-32a8 8 0 0 0 -8 8v32a8 8 0 0 0 8 8zm8-32h16v16h-16z"/><path d="m240 296h32a8 8 0 0 0 8-8v-32a8 8 0 0 0 -8-8h-32a8 8 0 0 0 -8 8v32a8 8 0 0 0 8 8zm8-32h16v16h-16z"/><path d="m400 296h32a8 8 0 0 0 8-8v-32a8 8 0 0 0 -8-8h-32a8 8 0 0 0 -8 8v32a8 8 0 0 0 8 8zm8-32h16v16h-16z"/><path d="m320 296h32a8 8 0 0 0 8-8v-32a8 8 0 0 0 -8-8h-32a8 8 0 0 0 -8 8v32a8 8 0 0 0 8 8zm8-32h16v16h-16z"/><path d="m160 368h32a8 8 0 0 0 8-8v-32a8 8 0 0 0 -8-8h-32a8 8 0 0 0 -8 8v32a8 8 0 0 0 8 8zm8-32h16v16h-16z"/><path d="m80 368h32a8 8 0 0 0 8-8v-32a8 8 0 0 0 -8-8h-32a8 8 0 0 0 -8 8v32a8 8 0 0 0 8 8zm8-32h16v16h-16z"/><path d="m240 368h32a8 8 0 0 0 8-8v-32a8 8 0 0 0 -8-8h-32a8 8 0 0 0 -8 8v32a8 8 0 0 0 8 8zm8-32h16v16h-16z"/><path d="m400 368h32a8 8 0 0 0 8-8v-32a8 8 0 0 0 -8-8h-32a8 8 0 0 0 -8 8v32a8 8 0 0 0 8 8zm8-32h16v16h-16z"/><path d="m320 368h32a8 8 0 0 0 8-8v-32a8 8 0 0 0 -8-8h-32a8 8 0 0 0 -8 8v32a8 8 0 0 0 8 8zm8-32h16v16h-16z"/><path d="m160 440h32a8 8 0 0 0 8-8v-32a8 8 0 0 0 -8-8h-32a8 8 0 0 0 -8 8v32a8 8 0 0 0 8 8zm8-32h16v16h-16z"/><path d="m80 440h32a8 8 0 0 0 8-8v-32a8 8 0 0 0 -8-8h-32a8 8 0 0 0 -8 8v32a8 8 0 0 0 8 8zm8-32h16v16h-16z"/><path d="m240 440h32a8 8 0 0 0 8-8v-32a8 8 0 0 0 -8-8h-32a8 8 0 0 0 -8 8v32a8 8 0 0 0 8 8zm8-32h16v16h-16z"/><path d="m400 440h32a8 8 0 0 0 8-8v-32a8 8 0 0 0 -8-8h-32a8 8 0 0 0 -8 8v32a8 8 0 0 0 8 8zm8-32h16v16h-16z"/><path d="m320 440h32a8 8 0 0 0 8-8v-32a8 8 0 0 0 -8-8h-32a8 8 0 0 0 -8 8v32a8 8 0 0 0 8 8zm8-32h16v16h-16z"/><path d="m472 48h-24v-8a24 24 0 0 0 -48 0v8h-64v-8a24 24 0 0 0 -48 0v8h-64v-8a24 24 0 0 0 -48 0v8h-64v-8a24 24 0 0 0 -48 0v8h-24a24.028 24.028 0 0 0 -24 24v400a24.028 24.028 0 0 0 24 24h432a24.028 24.028 0 0 0 24-24v-400a24.028 24.028 0 0 0 -24-24zm-56-8a8 8 0 0 1 16 0v32a8 8 0 0 1 -16 0zm-112 0a8 8 0 0 1 16 0v32a8 8 0 0 1 -16 0zm-112 0a8 8 0 0 1 16 0v32a8 8 0 0 1 -16 0zm-112 0a8 8 0 0 1 16 0v32a8 8 0 0 1 -16 0zm-48 32a8.009 8.009 0 0 1 8-8h24v8a24 24 0 0 0 48 0v-8h64v8a24 24 0 0 0 48 0v-8h64v8a24 24 0 0 0 48 0v-8h64v8a24 24 0 0 0 48 0v-8h24a8.009 8.009 0 0 1 8 8v48h-448zm448 400a8.009 8.009 0 0 1 -8 8h-432a8.009 8.009 0 0 1 -8-8v-336h448z"/></g></svg>