<svg id="Filled" height="512" viewBox="0 0 512 512" width="512" xmlns="http://www.w3.org/2000/svg"><circle cx="256" cy="256" fill="#ffd754" r="232"/><circle cx="256" cy="256" fill="#edb90c" r="184"/><path d="m74.782 232a8 8 0 0 1 -7.889-9.383 192.259 192.259 0 0 1 155.725-155.724 8 8 0 1 1 2.764 15.76 176.212 176.212 0 0 0 -142.729 142.729 8 8 0 0 1 -7.871 6.618z"/><path d="m287.99 445.229a8 8 0 0 1 -1.372-15.882 176.214 176.214 0 0 0 142.73-142.729 8 8 0 1 1 15.759 2.764 192.259 192.259 0 0 1 -155.725 155.725 8.051 8.051 0 0 1 -1.392.122z"/><circle cx="72" cy="256" r="8"/><circle cx="256" cy="72" r="8"/><circle cx="440" cy="256" r="8"/><circle cx="256" cy="440" r="8"/><path d="m256 496a240 240 0 0 1 -169.706-409.706 240 240 0 1 1 339.411 339.412 238.426 238.426 0 0 1 -169.705 70.294zm0-464a224 224 0 0 0 -158.392 382.392 224 224 0 0 0 316.784-316.784 222.535 222.535 0 0 0 -158.392-65.608z"/><path d="m296 296a8 8 0 0 0 0-16h-56v-16h48a48 48 0 0 0 0-96h-56a8 8 0 0 0 -8 8v72h-8a8 8 0 0 0 0 16h8v16h-8a8 8 0 0 0 0 16h8v56a8 8 0 0 0 16 0v-56zm24-80a32.036 32.036 0 0 1 -32 32h-48v-64h48a32.036 32.036 0 0 1 32 32z"/></svg>