<svg height="512pt" viewBox="-115 0 512 512.001" width="512pt" xmlns="http://www.w3.org/2000/svg"><path d="m213.71875 463.578125h-144.59375c-25.472656 0-46.121094-20.648437-46.121094-46.121094v-247.355469c0-25.472656 20.648438-46.121093 46.121094-46.121093h144.59375c25.472656 0 46.121094 20.648437 46.121094 46.121093v247.355469c.003906 25.472657-20.648438 46.121094-46.121094 46.121094zm0 0" fill="#f76937"/><path d="m213.71875 123.976562h-29.492188c25.472657 0 46.125 20.652344 46.125 46.125v247.355469c0 25.472657-20.652343 46.121094-46.125 46.121094h29.492188c25.472656 0 46.125-20.648437 46.125-46.121094v-247.355469c0-25.472656-20.652344-46.125-46.125-46.125zm0 0" fill="#ea552d"/><path d="m199.277344 463.578125h-115.710938v23.570313c0 9.582031 7.769532 17.351562 17.351563 17.351562h81.007812c9.582031 0 17.351563-7.769531 17.351563-17.351562zm0 0" fill="#5a5a5a"/><path d="m171.1875 463.578125v23.570313c0 9.582031-7.769531 17.351562-17.351562 17.351562h28.089843c9.582031 0 17.351563-7.769531 17.351563-17.351562v-23.570313zm0 0" fill="#464646"/><path d="m80.699219 42.863281h121.445312v81.113281h-121.445312zm0 0" fill="#5a5a5a"/><path d="m178.199219 42.863281h23.945312v81.113281h-23.945312zm0 0" fill="#464646"/><path d="m219.296875 7.5h-155.75c-6.101563 0-11.050781 4.949219-11.050781 11.054688v13.253906c0 6.105468 4.949218 11.054687 11.050781 11.054687h155.75c6.105469 0 11.054687-4.949219 11.054687-11.054687v-13.253906c-.003906-6.105469-4.949218-11.054688-11.054687-11.054688zm0 0" fill="#cdcdcd"/><path d="m219.296875 7.5h-29.492187c6.105468 0 11.054687 4.949219 11.054687 11.054688v13.253906c0 6.105468-4.949219 11.054687-11.054687 11.054687h29.492187c6.105469 0 11.050781-4.949219 11.050781-11.054687v-13.253906c0-6.105469-4.945312-11.054688-11.050781-11.054688zm0 0" fill="#bebebe"/><path d="m160.777344 123.976562h-38.707032v-38.421874c0-10.6875 8.664063-19.351563 19.351563-19.351563 10.691406 0 19.355469 8.664063 19.355469 19.351563zm0 0" fill="#f76937"/><path d="m178.199219 304.554688c0 20.3125-16.464844 36.777343-36.777344 36.777343s-36.777344-16.464843-36.777344-36.777343 36.777344-58.328126 36.777344-58.328126 36.777344 38.015626 36.777344 58.328126zm0 0" fill="#40c1fa"/><path d="m141.421875 246.226562s-4.929687 5.101563-11.175781 12.554688c10.820312 12.910156 25.597656 32.894531 25.597656 45.773438 0 16.414062-10.753906 30.308593-25.597656 35.042968 3.523437 1.121094 7.277344 1.734375 11.175781 1.734375 20.3125 0 36.777344-16.464843 36.777344-36.777343s-36.777344-58.328126-36.777344-58.328126zm0 0" fill="#07a9f0"/><path d="m275.34375 398.605469h-8v-20.988281c0-4.144532-3.359375-7.5-7.5-7.5-4.144531 0-7.5 3.355468-7.5 7.5v20.988281h-221.839844v-209.652344h221.839844v163.417969c0 4.144531 3.355469 7.5 7.5 7.5 4.140625 0 7.5-3.355469 7.5-7.5v-163.417969h8c4.144531 0 7.5-3.355469 7.5-7.5s-3.355469-7.5-7.5-7.5h-8v-3.851563c0-29.566406-24.054688-53.625-53.625-53.625h-4.074219v-66.113281h9.652344c10.230469 0 18.554687-8.324219 18.554687-18.554687v-13.253906c0-10.234376-8.324218-18.554688-18.554687-18.554688h-155.75c-10.226563 0-18.550781 8.320312-18.550781 18.554688v13.253906c0 10.230468 8.320312 18.554687 18.550781 18.554687h9.652344v16.777344c0 4.144531 3.355469 7.5 7.5 7.5s7.5-3.355469 7.5-7.5v-16.777344h106.445312v66.113281h-26.367187v-30.921874c0-14.804688-12.050782-26.851563-26.855469-26.851563-14.808594 0-26.855469 12.046875-26.855469 26.851563v30.925781h-26.367187v-24.09375c0-4.144531-3.359375-7.5-7.5-7.5-4.144531 0-7.5 3.355469-7.5 7.5v24.09375h-4.074219c-29.570312 0-53.625 24.054687-53.625 53.621093v3.851563h-8c-4.140625 0-7.5 3.359375-7.5 7.5 0 4.144531 3.359375 7.5 7.5 7.5h8v209.652344h-8c-4.140625 0-7.5 3.359375-7.5 7.5 0 4.144531 3.359375 7.5 7.5 7.5h8v3.851562c0 29.566407 24.054688 53.625 53.625 53.625h6.941406v16.070313c0 13.699218 11.144532 24.847656 24.847656 24.847656h81.011719c13.703125 0 24.851563-11.144531 24.851563-24.847656v-16.070313h6.941406c29.566406 0 53.621094-24.058593 53.621094-53.625v-3.851562h8.003906c4.140625 0 7.5-3.355469 7.5-7.5 0-4.140625-3.359375-7.5-7.5-7.5zm-211.796875-363.242188c-1.957031 0-3.550781-1.59375-3.550781-3.554687v-13.253906c0-1.960938 1.59375-3.554688 3.550781-3.554688h155.75c1.960937 0 3.554687 1.59375 3.554687 3.554688v13.253906c0 1.960937-1.59375 3.554687-3.554687 3.554687-32.144531 0-123.640625 0-155.75 0zm66.023437 50.191407c0-6.535157 5.316407-11.851563 11.851563-11.851563 6.539063 0 11.855469 5.316406 11.855469 11.851563v30.925781h-23.707032zm-99.066406 84.546874c0-21.296874 17.324219-38.621093 38.621094-38.621093h144.59375c21.296875 0 38.625 17.324219 38.625 38.621093v3.851563h-221.839844zm161.273438 317.046876c0 5.433593-4.417969 9.851562-9.851563 9.851562h-81.011719c-5.429687 0-9.847656-4.417969-9.847656-9.851562v-16.070313h100.710938zm60.566406-69.691407c0 21.296875-17.328125 38.621094-38.625 38.621094-22.511719 0-125.125 0-144.59375 0-21.296875 0-38.621094-17.324219-38.621094-38.621094v-3.851562h221.839844zm0 0"/><path d="m136.03125 241.011719c-3.980469 4.117187-38.886719 40.851562-38.886719 63.542969 0 24.414062 19.863281 44.277343 44.277344 44.277343s44.277344-19.863281 44.277344-44.277343c0-22.691407-34.90625-59.425782-38.886719-63.542969-2.949219-3.046875-7.839844-3.039063-10.78125 0zm34.667969 63.542969c0 16.144531-13.132813 29.277343-29.277344 29.277343-16.140625 0-29.273437-13.136719-29.273437-29.277343 0-10.980469 16.234374-32.738282 29.273437-47.304688 13.039063 14.566406 29.277344 36.324219 29.277344 47.304688zm0 0"/></svg>