<svg id="Capa_1" enable-background="new 0 0 512 512" height="512" viewBox="0 0 512 512" width="512" xmlns="http://www.w3.org/2000/svg"><g><path d="m7.504 465.266h496.991v38.23h-496.991z" fill="#8e9fb6"/><path d="m7.5 466.27h50v38.23h-50z" fill="#7a8da6"/><path d="m7.504 8.504h496.991v38.23h-496.991z" fill="#8e9fb6"/><path d="m7.5 7.5h60v38.23h-60z" fill="#7a8da6"/><path d="m45.734 45.734h420.531v38.23h-420.531z" fill="#f07281"/><path d="m45.73 45.73h50v38.23h-50z" fill="#eb5569"/><path d="m64.849 428.035h191.151v38.235h-191.151z" fill="#f07281"/><path d="m64.85 428.04h50v38.23h-50z" fill="#eb5569"/><path d="m256 428.035h191.151v38.235h-191.151z" fill="#f07281"/><path d="m256 428.04h50v38.23h-50z" fill="#eb5569"/><path d="m122.195 83.965h38.23v114.69h-38.23z" fill="#8e9fb6"/><path d="m160.42 83.96v20h-18.23v94.69h-20v-114.69z" fill="#7a8da6"/><path d="m351.575 83.965h38.23v114.69h-38.23z" fill="#8e9fb6"/><path d="m389.81 83.96v20h-18.23v94.69h-20v-114.69z" fill="#7a8da6"/><path d="m236.885 428.035h-152.92v-214.38c0-8.284 6.716-15 15-15h122.92c8.284 0 15 6.716 15 15z" fill="#eaf6ff"/><path d="m236.88 408.04v20h-152.92v-214.39c0-8.284 6.716-15 15-15h25v202.39c0 3.866 3.134 7 7 7z" fill="#d8ecfe"/><path d="m428.035 428.035h-152.92v-214.38c0-8.284 6.716-15 15-15h122.92c8.284 0 15 6.716 15 15z" fill="#eaf6ff"/><path d="m428.04 408.04v20h-152.93v-214.39c0-8.284 6.716-15 15-15h25v202.39c0 3.866 3.134 7 7 7z" fill="#d8ecfe"/><path d="m122.195 237.575h76.46v57.345h-76.46z" fill="#8ac9fe"/><path d="m122.19 237.58h30v57.34h-30z" fill="#60b7ff"/><path d="m313.345 237.575h76.46v57.345h-76.46z" fill="#8ac9fe"/><path d="m313.35 237.58h30v57.34h-30z" fill="#60b7ff"/><circle cx="256" cy="64.849" fill="#fee97d" r="57.345"/><path d="m271 120.2c-4.78 1.3-9.81 1.99-15 1.99-31.67 0-57.35-25.67-57.35-57.34s25.68-57.35 57.35-57.35c5.19 0 10.22.69 15 1.99-24.4 6.59-42.35 28.88-42.35 55.36s17.95 48.76 42.35 55.35z" fill="#fee45a"/><path d="m275.115 64.849c0 10.557-8.558 19.115-19.115 19.115s-19.115-8.558-19.115-19.115 19.115-30.115 19.115-30.115 19.115 19.558 19.115 30.115z" fill="#8ac9fe"/><g><path d="m198.654 230.075h-76.46c-4.143 0-7.5 3.357-7.5 7.5v57.345c0 4.143 3.357 7.5 7.5 7.5h76.46c4.143 0 7.5-3.357 7.5-7.5v-57.345c0-4.142-3.357-7.5-7.5-7.5zm-7.5 57.345h-61.46v-42.345h61.46z"/><path d="m198.654 344.075h-76.46c-4.143 0-7.5 3.357-7.5 7.5s3.357 7.5 7.5 7.5h76.46c4.143 0 7.5-3.357 7.5-7.5s-3.357-7.5-7.5-7.5z"/><path d="m313.345 230.075c-4.143 0-7.5 3.357-7.5 7.5v57.345c0 4.143 3.357 7.5 7.5 7.5h76.461c4.143 0 7.5-3.357 7.5-7.5v-57.345c0-4.143-3.357-7.5-7.5-7.5zm68.961 57.345h-61.461v-42.345h61.461z"/><path d="m389.806 344.075h-76.461c-4.143 0-7.5 3.357-7.5 7.5s3.357 7.5 7.5 7.5h76.461c4.143 0 7.5-3.357 7.5-7.5s-3.358-7.5-7.5-7.5z"/><path d="m466.27 91.46c4.143 0 7.5-3.357 7.5-7.5v-30.73h30.73c4.143 0 7.5-3.357 7.5-7.5v-38.23c0-4.143-3.357-7.5-7.5-7.5h-497c-4.143 0-7.5 3.357-7.5 7.5v38.23c0 4.143 3.357 7.5 7.5 7.5h30.73v30.73c0 4.143 3.357 7.5 7.5 7.5h68.964v99.69h-15.734c-12.406 0-22.5 10.094-22.5 22.5v5.314l-59.757 39.394c-10.456 6.971-16.699 18.635-16.699 31.202v100.246c0 14.675 11.939 26.614 26.615 26.614s26.615-11.939 26.615-26.614c0-14.357 9.897-26.442 23.226-29.8v60.529h-11.61c-4.143 0-7.5 3.357-7.5 7.5v30.734h-49.85c-4.143 0-7.5 3.357-7.5 7.5v38.23c0 4.143 3.357 7.5 7.5 7.5h497c4.143 0 7.5-3.357 7.5-7.5v-38.23c0-4.143-3.357-7.5-7.5-7.5h-49.85v-30.729c0-4.143-3.357-7.5-7.5-7.5h-11.615v-60.535c13.331 3.356 23.23 15.442 23.23 29.801 0 14.675 11.939 26.614 26.615 26.614 14.675 0 26.614-11.939 26.614-26.614v-100.246c0-12.567-6.242-24.231-16.73-31.223l-59.729-39.376v-5.307c0-12.406-10.094-22.5-22.5-22.5h-15.729v-99.694zm30.73-53.23h-86.7c-4.143 0-7.5 3.357-7.5 7.5s3.357 7.5 7.5 7.5h48.47v23.23h-138.987c1.416-7.743 1.415-15.486-.002-23.229h57.829c4.143 0 7.5-3.357 7.5-7.5s-3.357-7.5-7.5-7.5h-62.504c-4.082-9.028-10.16-16.966-17.686-23.23h199.58zm-290.846 26.62c0-27.485 22.36-49.846 49.846-49.846 27.484 0 49.845 22.36 49.845 49.846 0 27.484-22.36 49.845-49.845 49.845-27.485-.001-49.846-22.361-49.846-49.845zm-191.154-49.85h199.58c-7.526 6.264-13.604 14.202-17.687 23.23h-181.893zm38.23 38.23h138.987c-1.417 7.743-1.418 15.486-.002 23.229h-138.985zm76.464 38.235h23.23v99.686h-23.23zm-104.703 179.395 13.243-8.73v42.104h-23.23v-14.674c0-7.54 3.745-14.539 9.987-18.7zm66.469 37.57c0-4.143-3.357-7.5-7.5-7.5s-7.5 3.357-7.5 7.5v36.272c-21.656 3.592-38.226 22.445-38.226 45.104 0 6.404-5.211 11.614-11.615 11.614s-11.615-5.21-11.615-11.614v-70.571h30.536c4.243 0 7.694-3.452 7.694-7.694v-59.299l23.226-15.312v38.81c0 4.143 3.357 7.5 7.5 7.5s7.5-3.357 7.5-7.5v-62.09c0-4.136 3.364-7.5 7.5-7.5h122.92c4.136 0 7.5 3.364 7.5 7.5v206.885h-137.92zm-19.11 127.105h176.15v23.234h-176.15zm367.3 23.235h-91.85-.01c-4.143 0-7.5 3.357-7.5 7.5s3.357 7.5 7.5 7.5h.01 149.2v23.23h-482v-23.23h300.1.011c4.143 0 7.5-3.357 7.5-7.5s-3.357-7.5-7.5-7.5h-.011-51.6v-23.23h176.15zm57.345-169.21v14.675h-23.229v-42.105l13.211 8.709c6.273 4.182 10.018 11.181 10.018 18.721zm-38.229-37.319v59.299c0 4.242 3.451 7.694 7.694 7.694h30.535v70.571c0 6.404-5.21 11.614-11.614 11.614s-11.615-5.21-11.615-11.614c0-22.661-16.572-41.515-38.23-45.105v-107.773zm-38.231-38.587v206.881h-137.92v-206.881c0-4.136 3.364-7.5 7.5-7.5h122.92c4.136 0 7.5 3.365 7.5 7.5zm-61.46-22.5v-99.689h23.23v99.689zm-15 0h-53.96c-12.406 0-22.5 10.094-22.5 22.5v206.886l-23.235-.005v-206.885c0-12.406-10.094-22.5-22.5-22.5h-53.955v-99.69h28.965c10.178 22.518 32.836 38.234 59.111 38.234 26.274 0 48.932-15.717 59.11-38.234h28.965v99.694z"/><path d="m256 91.465c14.676 0 26.615-11.939 26.615-26.615 0-12.633-16.267-30.257-21.252-35.357-3.576-3.01-7.151-3.01-10.727 0-4.985 5.101-21.252 22.725-21.252 35.357.001 14.675 11.94 26.615 26.616 26.615zm0-45.559c6.191 7.338 11.615 15.516 11.615 18.943 0 6.404-5.211 11.615-11.615 11.615s-11.615-5.211-11.615-11.615c0-3.427 5.424-11.605 11.615-18.943z"/></g></g></svg>